<?xml version="1.0" encoding="UTF-8" standalone="no"?>
<!-- Created with Inkscape (http://www.inkscape.org/) -->

<svg
   xmlns:dc="http://purl.org/dc/elements/1.1/"
   xmlns:cc="http://creativecommons.org/ns#"
   xmlns:rdf="http://www.w3.org/1999/02/22-rdf-syntax-ns#"
   xmlns:svg="http://www.w3.org/2000/svg"
   xmlns="http://www.w3.org/2000/svg"
   xmlns:sodipodi="http://sodipodi.sourceforge.net/DTD/sodipodi-0.dtd"
   xmlns:inkscape="http://www.inkscape.org/namespaces/inkscape"
   width="744.09448819"
   height="1052.3622047"
   id="svg2"
   version="1.1"
   inkscape:version="0.48.4 r9939"
   sodipodi:docname="deploy.svg">
  <defs
     id="defs4" />
  <sodipodi:namedview
     id="base"
     pagecolor="#ffffff"
     bordercolor="#666666"
     borderopacity="1.0"
     inkscape:pageopacity="0.0"
     inkscape:pageshadow="2"
     inkscape:zoom="1.4"
     inkscape:cx="523.39043"
     inkscape:cy="620.2347"
     inkscape:document-units="px"
     inkscape:current-layer="layer1"
     showgrid="false"
     inkscape:window-width="1855"
     inkscape:window-height="1056"
     inkscape:window-x="65"
     inkscape:window-y="24"
     inkscape:window-maximized="1" />
  <metadata
     id="metadata7">
    <rdf:RDF>
      <cc:Work
         rdf:about="">
        <dc:format>image/svg+xml</dc:format>
        <dc:type
           rdf:resource="http://purl.org/dc/dcmitype/StillImage" />
        <dc:title></dc:title>
      </cc:Work>
    </rdf:RDF>
  </metadata>
  <g
     inkscape:label="Layer 1"
     inkscape:groupmode="layer"
     id="layer1">
    <rect
       style="fill:#ffffff;fill-opacity:1;stroke:#030606;stroke-width:0.38740921;stroke-linecap:round;stroke-miterlimit:4;stroke-opacity:0.96825406;stroke-dasharray:none"
       id="rect4384"
       width="86.45916"
       height="197.88773"
       x="295.69897"
       y="483.06116" />
    <rect
       style="fill:none;stroke:#030606;stroke-width:0.37109557;stroke-linecap:round;stroke-miterlimit:4;stroke-opacity:0.96825406;stroke-dasharray:none"
       id="rect2985"
       width="78.918549"
       height="31.38806"
       x="-586.46185"
       y="321.81528"
       transform="matrix(0,-1,1,0,0,0)" />
    <rect
       style="fill:none;stroke:#030606;stroke-width:0.15289341;stroke-linecap:round;stroke-miterlimit:4;stroke-opacity:0.96825406;stroke-dasharray:none"
       id="rect2985-3"
       width="24.526649"
       height="17.143967"
       x="-528.78741"
       y="328.48245"
       transform="matrix(0,-1,1,0,0,0)" />
    <g
       id="g4167"
       transform="matrix(0.8877884,0,0,0.8877884,54.923421,28.668278)">
      <path
         inkscape:connector-curvature="0"
         id="path3773"
         d="m 312.39514,536.8674 c 0,-1.13909 0,-2.27818 0,-3.41725 0,-0.16273 0,-0.32546 0,-0.48819 0,-0.0814 0.0115,-0.16689 0,-0.24408 -0.0256,-0.1726 -0.083,-0.31559 -0.10859,-0.48818 -0.0229,-0.15437 0.0324,-0.34263 0,-0.48818 -0.0229,-0.10292 -0.0962,-0.13246 -0.1086,-0.24409 -0.0214,-0.19212 0,-1.70291 0,-1.95271 0,-1.38318 0,-2.76635 0,-4.14952 0,-1.46453 0,-2.92907 0,-4.39361 0,-0.56954 0,-1.13908 0,-1.70862 0,-0.16273 0,-0.32546 0,-0.48818 0,-0.0814 -0.0162,-0.17132 0,-0.24409 0.0229,-0.10292 0.0857,-0.14118 0.1086,-0.24409 0.0312,-0.14012 -0.0231,-1.01267 0,-1.22044 0.13109,-1.1787 0.0516,0.0121 0.21719,-0.73227 0.0162,-0.0728 -0.0114,-0.16691 0,-0.2441 0.0256,-0.17259 0.089,-0.31167 0.10859,-0.48817 0.0263,-0.2368 -0.0343,-0.5007 0,-0.73227 0.2622,-1.76804 -0.0313,0.38483 0.21719,-0.73227 0.0324,-0.14555 -0.0229,-0.3338 0,-0.48817 0.12378,-0.83465 0.0901,-0.18164 0.32579,-0.97637 0.0201,-0.0677 -0.0114,-0.16689 0,-0.24408 0.0256,-0.1726 0.0785,-0.31926 0.1086,-0.48818 0.0425,-0.23889 0.0574,-0.50214 0.10859,-0.73227 0.0652,-0.2929 0.26063,-0.43936 0.32579,-0.73227 0.0162,-0.0728 -0.0162,-0.17131 0,-0.24408 0.0229,-0.10292 0.0857,-0.14118 0.1086,-0.2441 0.0162,-0.0728 -0.0162,-0.17131 0,-0.24408 0.0229,-0.10292 0.0924,-0.13493 0.10859,-0.24409 0.0229,-0.15438 -0.0175,-0.33031 0,-0.48818 0.0438,-0.39407 0.1068,-0.48415 0.2172,-0.73227 0.0362,-0.0814 0.0924,-0.13493 0.10859,-0.24409 0.0229,-0.15438 -0.0229,-0.3338 0,-0.48818 0.0162,-0.10915 0.0962,-0.13246 0.1086,-0.24409 0.0263,-0.2368 -0.0263,-0.49547 0,-0.73227 0.0124,-0.11162 0.0724,-0.16272 0.10859,-0.24408 0.0362,-0.0814 0.0724,-0.16273 0.1086,-0.24409 0.21719,-0.48818 0.43438,-0.97636 0.65158,-1.46454 0.0724,-0.16272 0.16039,-0.2967 0.21719,-0.48818 0.0449,-0.15138 0.0412,-0.38726 0.10859,-0.48818 0.0602,-0.0903 0.14851,0.0515 0.21719,0 0.19101,-0.1431 0.0644,-0.43455 0.1086,-0.73226 0.0324,-0.21833 0.1714,-0.28235 0.21719,-0.48819 0.0162,-0.0728 -0.0162,-0.17131 0,-0.24408 0.029,-0.13036 0.26862,-0.60376 0.32579,-0.73227 0.33215,-0.74658 -0.17728,0.44993 0.21719,-0.73227 0.0614,-0.1841 0.1604,-0.2967 0.21719,-0.48818 0.0201,-0.0677 -0.0162,-0.17131 0,-0.24408 0.0229,-0.10292 0.0802,-0.14835 0.1086,-0.2441 0.0449,-0.15137 0.0637,-0.33679 0.10859,-0.48817 0.0284,-0.0958 0.0924,-0.13493 0.1086,-0.2441 0.0229,-0.15437 -0.0324,-0.34262 0,-0.48817 0.0809,-0.36387 0.23267,-0.62752 0.32579,-0.97636 0.0186,-0.0698 -0.0114,-0.1669 0,-0.24409 0.0512,-0.34519 0.166,-0.63116 0.21719,-0.97636 0.0472,-0.31824 0.0532,-0.66488 0.10859,-0.97635 0.038,-0.21367 0.17141,-0.28234 0.2172,-0.48818 0.0512,-0.23013 0.0574,-0.50214 0.10859,-0.73227 0.0229,-0.10292 0.0724,-0.16273 0.1086,-0.24409 0.0724,-0.24409 0.16872,-0.45989 0.21719,-0.73226 0.0269,-0.15109 -0.0229,-0.33381 0,-0.48818 0.0162,-0.10916 0.0896,-0.13726 0.1086,-0.24409 0.0568,-0.31916 0.12242,-1.35359 0.21719,-1.70863 0.0527,-0.19733 0.1604,-0.29669 0.21719,-0.48818 0.0201,-0.0677 -0.006,-0.16383 0,-0.24408 0.0303,-0.40923 0.0579,-0.82155 0.1086,-1.22045 0.0222,-0.17493 0.083,-0.31558 0.10859,-0.48818 0.0267,-0.18022 -0.007,-1.13756 0,-1.22045 0.0159,-0.17839 0.083,-0.31558 0.1086,-0.48817 0.0114,-0.0772 0,-0.16273 0,-0.24409 0,-0.16273 0,-0.32545 0,-0.48818 0,-0.40682 0,-0.81364 0,-1.22045 0,-0.0814 0,-0.16273 0,-0.24409 0,-0.0814 -0.0201,-0.17639 0,-0.24409 0.0568,-0.19148 0.1714,-0.28234 0.21719,-0.48818 0.0324,-0.14554 0,-0.32545 0,-0.48817 0,-0.48819 0,-0.97636 0,-1.46454 0,-1.46454 0,-2.92907 0,-4.39361 0,-2.11544 0,-4.23088 0,-6.34632 0,-0.56954 0,-1.13908 0,-1.70862 0,-0.24409 0,-0.48818 0,-0.73227 0,-0.0814 0.0114,-0.1669 0,-0.24409 -0.30763,-1.38293 0.0405,0.36387 -0.10859,-0.97636 -0.0196,-0.1765 -0.0927,-0.30977 -0.1086,-0.48817 -0.0213,-0.23935 0.0213,-0.49292 0,-0.73227 -0.0159,-0.1784 -0.0927,-0.30978 -0.1086,-0.48818 -0.0213,-0.23935 0.0403,-0.50564 0,-0.73227 -0.038,-0.21367 -0.1714,-0.28234 -0.21719,-0.48818 -0.0324,-0.14554 0.0229,-0.3338 0,-0.48818 -0.0162,-0.10916 -0.0724,-0.16272 -0.1086,-0.24409 -0.0362,-0.24408 -0.0808,-0.48266 -0.10859,-0.73226 -0.009,-0.0789 0,-0.16273 0,-0.24409 -0.0362,-0.16273 -0.083,-0.31559 -0.1086,-0.48818 -0.0114,-0.0772 0.0201,-0.1764 0,-0.24409 -0.0568,-0.19148 -0.1604,-0.2967 -0.21719,-0.48818 -0.0201,-0.0677 0.0115,-0.1669 0,-0.24409 -0.0256,-0.1726 -0.089,-0.31167 -0.10859,-0.48817 -0.0351,-0.31574 0.0458,-0.66761 0,-0.97637 -0.0162,-0.10915 -0.0724,-0.16272 -0.1086,-0.24408 0,-0.16273 0.0175,-0.33032 0,-0.48818 -0.0743,-0.66772 -0.1527,-0.39279 -0.32579,-0.97636 -0.0201,-0.0677 0.0114,-0.1669 0,-0.24409 -0.33669,-1.51357 -0.0138,0.11978 -0.1086,-0.73227 -0.22597,-2.03168 0.008,0.29464 -0.21719,-1.22044 -0.0115,-0.0772 0.0114,-0.16691 0,-0.24409 -0.0657,-0.44333 -0.0929,-0.453 -0.21719,-0.73227 -0.0362,-0.0814 -0.0924,-0.13493 -0.10859,-0.24409 -0.0229,-0.15437 0.0175,-0.33031 0,-0.48818 -0.0393,-0.353 -0.166,-0.63116 -0.2172,-0.97635 -0.0249,-0.1679 0.032,-0.58825 0,-0.73227 -0.0584,-0.26239 -0.15882,-0.46988 -0.21719,-0.73227 -0.32794,-1.47424 0.0157,-0.10334 -0.10859,-1.22044 -0.0196,-0.1765 -0.083,-0.31559 -0.1086,-0.48819 -0.0114,-0.0772 0,-0.16272 0,-0.24408 0,-0.2441 0.0263,-0.49547 0,-0.73227 -0.0124,-0.11163 -0.0857,-0.14117 -0.10859,-0.24409 -0.0162,-0.0728 0.0134,-0.16854 0,-0.24409 -0.0601,-0.33785 -0.15343,-0.64191 -0.2172,-0.97636 -0.12004,-0.62957 -0.10859,-0.53185 -0.10859,-0.97635 0,-0.0814 0.009,-0.16516 0,-0.24409 -0.0278,-0.24961 -0.0808,-0.48266 -0.1086,-0.73227 -0.009,-0.0789 0.0162,-0.17131 0,-0.24409 -0.0229,-0.10292 -0.0857,-0.14117 -0.10859,-0.24409 -0.0162,-0.0728 0,-0.16272 0,-0.24409 -0.0724,-0.16273 -0.1604,-0.2967 -0.2172,-0.48818 -0.0242,-0.0816 0.0143,-0.60346 0,-0.73226 -0.0278,-0.24962 -0.0808,-0.48266 -0.10859,-0.73227 -0.0175,-0.15787 0.0229,-0.33381 0,-0.48818 -0.0256,-0.1726 -0.083,-0.31559 -0.1086,-0.48818 -0.0281,-0.18944 0.0154,-1.29199 0,-1.46454 -0.0159,-0.1784 -0.0927,-0.30978 -0.10859,-0.48818 -0.0288,-0.32343 0,-0.85388 0,-1.22044 0,-1.13909 0,-2.27816 0,-3.41725 0,-0.73227 0,-1.46454 0,-2.19681 0,-0.20665 -0.0195,-0.84513 0,-0.97635 0.0162,-0.10916 0.0857,-0.14118 0.10859,-0.24409 0.0162,-0.0728 0,-0.16273 0,-0.24409 0,-0.0814 0,-0.16273 0,-0.24409 0,-0.17412 -0.02,-1.04025 0,-1.22044 0.2743,-2.46619 -0.0392,0.17627 0.21719,-0.97636 0.0341,-0.15342 -0.0341,-0.82294 0,-0.97636 0.0229,-0.10292 0.0857,-0.14117 0.1086,-0.24409 0.0341,-0.15341 -0.0341,-0.82294 0,-0.97636 0.0229,-0.10291 0.0857,-0.14117 0.1086,-0.24408 0.0162,-0.0728 0,-0.16273 0,-0.24409 0,-0.16273 -0.0229,-0.33381 0,-0.48818 0.0162,-0.10916 0.0802,-0.14835 0.10859,-0.24409 0.0449,-0.15138 0.0637,-0.3368 0.1086,-0.48818 0.0284,-0.0957 0.0802,-0.14835 0.10859,-0.24409 0.0449,-0.15138 0.0637,-0.3368 0.1086,-0.48818 0.16567,-0.55855 0.086,0.15263 0.21719,-0.73227 0.0114,-0.0772 -0.0201,-0.17638 0,-0.24409 0.10653,-0.35916 0.32785,-0.61718 0.43438,-0.97635 0.0898,-0.30276 0.1274,-0.6736 0.2172,-0.97636 0.0284,-0.0957 0.0724,-0.16273 0.10859,-0.24409 0.1086,-0.24409 0.21719,-0.48818 0.32579,-0.73227 0.137,-0.30794 0.28309,-0.72131 0.43438,-0.97635 0.0648,-0.10916 0.14985,-0.14318 0.2172,-0.2441 0.0426,-0.0638 0.066,-0.18026 0.10859,-0.24408 0.0673,-0.10092 0.15244,-0.13493 0.21719,-0.24409 0.0465,-0.0784 0.36854,-0.90237 0.43439,-0.97636 0.0324,-0.0364 0.0735,0.0198 0.10859,0 0.11105,-0.0624 0.2172,-0.16273 0.32579,-0.24409"
         style="fill:none;stroke:#000000;stroke-width:0.45586801px;stroke-linecap:butt;stroke-linejoin:miter;stroke-opacity:1" />
      <path
         inkscape:connector-curvature="0"
         id="path3773-6"
         d="m 321.1371,536.86739 c 0,-1.13909 0,-2.27818 0,-3.41725 0,-0.16273 0,-0.32546 0,-0.48819 0,-0.0814 0.0115,-0.16689 0,-0.24408 -0.0256,-0.1726 -0.083,-0.31559 -0.10859,-0.48818 -0.0229,-0.15437 0.0324,-0.34263 0,-0.48818 -0.0229,-0.10292 -0.0962,-0.13246 -0.1086,-0.24409 -0.0214,-0.19212 0,-1.70291 0,-1.95271 0,-1.38318 0,-2.76635 0,-4.14952 0,-1.46453 0,-2.92907 0,-4.39361 0,-0.56954 0,-1.13908 0,-1.70862 0,-0.16273 0,-0.32546 0,-0.48818 0,-0.0814 -0.0162,-0.17132 0,-0.24409 0.0229,-0.10292 0.0857,-0.14118 0.1086,-0.24409 0.0312,-0.14012 -0.0231,-1.01266 0,-1.22043 0.13109,-1.1787 0.0516,0.0121 0.21719,-0.73227 0.0162,-0.0728 -0.0114,-0.16691 0,-0.2441 0.0256,-0.17259 0.089,-0.31167 0.10859,-0.48817 0.0263,-0.2368 -0.0343,-0.5007 0,-0.73227 0.2622,-1.76804 -0.0313,0.38483 0.21719,-0.73227 0.0324,-0.14555 -0.0229,-0.3338 0,-0.48817 0.12378,-0.83465 0.0901,-0.18164 0.32579,-0.97637 0.0201,-0.0677 -0.0114,-0.16689 0,-0.24408 0.0256,-0.1726 0.0785,-0.31926 0.1086,-0.48818 0.0425,-0.23889 0.0574,-0.50214 0.10859,-0.73227 0.0652,-0.2929 0.26063,-0.43936 0.32579,-0.73227 0.0162,-0.0728 -0.0162,-0.17131 0,-0.24408 0.0229,-0.10292 0.0857,-0.14118 0.1086,-0.2441 0.0162,-0.0728 -0.0162,-0.17131 0,-0.24408 0.0229,-0.10292 0.0924,-0.13493 0.10859,-0.24409 0.0229,-0.15438 -0.0175,-0.33031 0,-0.48818 0.0438,-0.39407 0.1068,-0.48415 0.2172,-0.73227 0.0362,-0.0814 0.0924,-0.13493 0.10859,-0.24409 0.0229,-0.15438 -0.0229,-0.3338 0,-0.48818 0.0162,-0.10915 0.0962,-0.13246 0.1086,-0.24409 0.0263,-0.2368 -0.0263,-0.49547 0,-0.73227 0.0124,-0.11162 0.0724,-0.16272 0.10859,-0.24408 0.0362,-0.0814 0.0724,-0.16273 0.1086,-0.24409 0.21719,-0.48818 0.43438,-0.97636 0.65158,-1.46454 0.0724,-0.16272 0.16039,-0.2967 0.21719,-0.48818 0.0449,-0.15138 0.0412,-0.38726 0.10859,-0.48818 0.0602,-0.0903 0.14851,0.0515 0.21719,0 0.19101,-0.1431 0.0644,-0.43455 0.1086,-0.73226 0.0324,-0.21833 0.1714,-0.28235 0.21719,-0.48819 0.0162,-0.0728 -0.0162,-0.17131 0,-0.24408 0.029,-0.13036 0.26862,-0.60376 0.32579,-0.73227 0.33215,-0.74658 -0.17728,0.44993 0.21719,-0.73227 0.0614,-0.1841 0.1604,-0.2967 0.21719,-0.48818 0.0201,-0.0677 -0.0162,-0.17131 0,-0.24408 0.0229,-0.10292 0.0802,-0.14835 0.1086,-0.2441 0.0449,-0.15137 0.0637,-0.33679 0.10859,-0.48817 0.0284,-0.0958 0.0924,-0.13493 0.1086,-0.2441 0.0229,-0.15437 -0.0324,-0.34262 0,-0.48817 0.0809,-0.36387 0.23267,-0.62752 0.32579,-0.97636 0.0186,-0.0698 -0.0114,-0.1669 0,-0.24409 0.0512,-0.34519 0.166,-0.63116 0.21719,-0.97636 0.0472,-0.31824 0.0532,-0.66488 0.10859,-0.97635 0.038,-0.21367 0.17141,-0.28234 0.2172,-0.48818 0.0512,-0.23013 0.0574,-0.50214 0.10859,-0.73227 0.0229,-0.10292 0.0724,-0.16273 0.1086,-0.24409 0.0724,-0.24409 0.16872,-0.45989 0.21719,-0.73226 0.0269,-0.15109 -0.0229,-0.33381 0,-0.48818 0.0162,-0.10916 0.0896,-0.13726 0.1086,-0.24409 0.0568,-0.31916 0.12242,-1.35359 0.21719,-1.70863 0.0527,-0.19733 0.1604,-0.29669 0.21719,-0.48818 0.0201,-0.0677 -0.006,-0.16383 0,-0.24408 0.0303,-0.40923 0.0579,-0.82155 0.1086,-1.22045 0.0222,-0.17493 0.083,-0.31558 0.10859,-0.48818 0.0267,-0.18022 -0.007,-1.13756 0,-1.22045 0.0159,-0.17839 0.083,-0.31558 0.1086,-0.48817 0.0114,-0.0772 0,-0.16273 0,-0.24409 0,-0.16273 0,-0.32545 0,-0.48818 0,-0.40682 0,-0.81364 0,-1.22045 0,-0.0814 0,-0.16273 0,-0.24409 0,-0.0814 -0.0201,-0.17639 0,-0.24409 0.0568,-0.19148 0.1714,-0.28234 0.21719,-0.48818 0.0324,-0.14554 0,-0.32545 0,-0.48817 0,-0.48819 0,-0.97636 0,-1.46454 0,-1.46454 0,-2.92907 0,-4.39361 0,-2.11544 0,-4.23088 0,-6.34632 0,-0.56954 0,-1.13908 0,-1.70862 0,-0.24409 0,-0.48818 0,-0.73227 0,-0.0814 0.0114,-0.1669 0,-0.24409 -0.30763,-1.38293 0.0405,0.36387 -0.10859,-0.97636 -0.0196,-0.1765 -0.0927,-0.30977 -0.1086,-0.48817 -0.0213,-0.23935 0.0213,-0.49292 0,-0.73227 -0.0159,-0.1784 -0.0927,-0.30978 -0.1086,-0.48818 -0.0213,-0.23935 0.0403,-0.50564 0,-0.73227 -0.038,-0.21367 -0.1714,-0.28234 -0.21719,-0.48818 -0.0324,-0.14554 0.0229,-0.3338 0,-0.48818 -0.0162,-0.10916 -0.0724,-0.16272 -0.1086,-0.24409 -0.0362,-0.24408 -0.0808,-0.48266 -0.10859,-0.73226 -0.009,-0.0789 0,-0.16273 0,-0.24409 -0.0362,-0.16273 -0.083,-0.31559 -0.1086,-0.48818 -0.0114,-0.0772 0.0201,-0.1764 0,-0.24409 -0.0568,-0.19148 -0.1604,-0.2967 -0.21719,-0.48818 -0.0201,-0.0677 0.0115,-0.1669 0,-0.24409 -0.0256,-0.1726 -0.089,-0.31167 -0.10859,-0.48817 -0.0351,-0.31574 0.0458,-0.66761 0,-0.97637 -0.0162,-0.10915 -0.0724,-0.16272 -0.1086,-0.24408 0,-0.16273 0.0175,-0.33032 0,-0.48818 -0.0743,-0.66772 -0.1527,-0.39279 -0.32579,-0.97636 -0.0201,-0.0677 0.0114,-0.1669 0,-0.24409 -0.33669,-1.51357 -0.0138,0.11978 -0.1086,-0.73227 -0.22597,-2.03168 0.008,0.29464 -0.21719,-1.22044 -0.0115,-0.0772 0.0114,-0.16691 0,-0.24409 -0.0657,-0.44333 -0.0929,-0.453 -0.21719,-0.73227 -0.0362,-0.0814 -0.0924,-0.13493 -0.10859,-0.24409 -0.0229,-0.15437 0.0175,-0.33031 0,-0.48818 -0.0393,-0.353 -0.166,-0.63116 -0.2172,-0.97635 -0.0249,-0.1679 0.032,-0.58825 0,-0.73227 -0.0584,-0.26239 -0.15882,-0.46988 -0.21719,-0.73227 -0.32794,-1.47424 0.0157,-0.10334 -0.10859,-1.22044 -0.0196,-0.1765 -0.083,-0.31559 -0.1086,-0.48819 -0.0114,-0.0772 0,-0.16272 0,-0.24408 0,-0.2441 0.0263,-0.49547 0,-0.73227 -0.0124,-0.11163 -0.0857,-0.14117 -0.10859,-0.24409 -0.0162,-0.0728 0.0134,-0.16854 0,-0.24409 -0.0601,-0.33785 -0.15343,-0.64191 -0.2172,-0.97636 -0.12004,-0.62957 -0.10859,-0.53185 -0.10859,-0.97635 0,-0.0814 0.009,-0.16516 0,-0.24409 -0.0278,-0.24961 -0.0808,-0.48266 -0.1086,-0.73227 -0.009,-0.0789 0.0162,-0.17131 0,-0.24409 -0.0229,-0.10292 -0.0857,-0.14117 -0.10859,-0.24409 -0.0162,-0.0728 0,-0.16272 0,-0.24409 -0.0724,-0.16273 -0.1604,-0.2967 -0.2172,-0.48818 -0.0242,-0.0816 0.0143,-0.60346 0,-0.73226 -0.0278,-0.24962 -0.0808,-0.48266 -0.10859,-0.73227 -0.0175,-0.15787 0.0229,-0.33381 0,-0.48818 -0.0256,-0.1726 -0.083,-0.31559 -0.1086,-0.48818 -0.0281,-0.18944 0.0154,-1.29199 0,-1.46454 -0.0159,-0.1784 -0.0927,-0.30978 -0.10859,-0.48818 -0.0288,-0.32343 0,-0.85388 0,-1.22044 0,-1.13909 0,-2.27816 0,-3.41725 0,-0.73227 0,-1.46454 0,-2.19681 0,-0.20665 -0.0195,-0.84513 0,-0.97635 0.0162,-0.10916 0.0857,-0.14118 0.10859,-0.24409 0.0162,-0.0728 0,-0.16273 0,-0.24409 0,-0.0814 0,-0.16273 0,-0.24409 0,-0.17412 -0.02,-1.04025 0,-1.22044 0.2743,-2.46619 -0.0392,0.17627 0.21719,-0.97636 0.0341,-0.15342 -0.0341,-0.82294 0,-0.97636 0.0229,-0.10292 0.0857,-0.14117 0.1086,-0.24409 0.0341,-0.15341 -0.0341,-0.82294 0,-0.97636 0.0229,-0.10291 0.0857,-0.14117 0.1086,-0.24408 0.0162,-0.0728 0,-0.16273 0,-0.24409 0,-0.16273 -0.0229,-0.33381 0,-0.48818 0.0162,-0.10916 0.0802,-0.14835 0.10859,-0.24409 0.0449,-0.15138 0.0637,-0.3368 0.1086,-0.48818 0.0284,-0.0957 0.0802,-0.14835 0.10859,-0.24409 0.0449,-0.15138 0.0637,-0.3368 0.1086,-0.48818 0.16567,-0.55855 0.086,0.15263 0.21719,-0.73227 0.0114,-0.0772 -0.0201,-0.17638 0,-0.24409 0.10653,-0.35916 0.32785,-0.61718 0.43438,-0.97635 0.0898,-0.30276 0.1274,-0.6736 0.2172,-0.97636 0.0284,-0.0957 0.0724,-0.16273 0.10859,-0.24409 0.1086,-0.24409 0.21719,-0.48818 0.32579,-0.73227 0.137,-0.30794 0.28309,-0.72131 0.43438,-0.97635 0.0648,-0.10916 0.14985,-0.14318 0.2172,-0.2441 0.0426,-0.0638 0.066,-0.18026 0.10859,-0.24408 0.0673,-0.10092 0.15244,-0.13493 0.21719,-0.24409 0.0465,-0.0784 0.36854,-0.90237 0.43439,-0.97636 0.0324,-0.0364 0.0735,0.0198 0.10859,0 0.11105,-0.0624 0.2172,-0.16273 0.32579,-0.24409"
         style="fill:none;stroke:#000000;stroke-width:0.45586801px;stroke-linecap:butt;stroke-linejoin:miter;stroke-opacity:1" />
    </g>
    <text
       xml:space="preserve"
       style="font-size:40px;font-style:normal;font-weight:normal;line-height:125%;letter-spacing:0px;word-spacing:0px;fill:#000000;fill-opacity:1;stroke:none;font-family:Sans"
       x="394.59085"
       y="247.83881"
       id="text3996"
       sodipodi:linespacing="125%"><tspan
         sodipodi:role="line"
         id="tspan3998"></tspan></text>
    <text
       xml:space="preserve"
       style="font-size:22.81481934px;font-style:normal;font-weight:normal;line-height:125%;letter-spacing:0px;word-spacing:0px;fill:#000000;fill-opacity:1;stroke:none;font-family:Sans"
       x="366.5994"
       y="546.4787"
       id="text4063"
       sodipodi:linespacing="125%"><tspan
         sodipodi:role="line"
         id="tspan4065"
         x="366.5994"
         y="546.4787">logger (temperature, other)</tspan></text>
    <text
       xml:space="preserve"
       style="font-size:16.50925446px;font-style:normal;font-weight:normal;line-height:125%;letter-spacing:0px;word-spacing:0px;fill:#000000;fill-opacity:1;stroke:none;font-family:Sans"
       x="367.36063"
       y="568.92981"
       id="text4067"
       sodipodi:linespacing="125%"><tspan
         sodipodi:role="line"
         id="tspan4069"
         x="367.36063"
         y="568.92981">local storage (eeprom)</tspan></text>
    <text
       xml:space="preserve"
       style="font-size:22.81481934px;font-style:normal;font-weight:normal;line-height:125%;letter-spacing:0px;word-spacing:0px;fill:#000000;fill-opacity:1;stroke:none;font-family:Sans"
       x="363.185"
       y="450.64636"
       id="text4063-9-3"
       sodipodi:linespacing="125%"><tspan
         sodipodi:role="line"
         id="tspan4065-2-7"
         x="363.185"
         y="450.64636">ethernet cable</tspan></text>
    <path
       style="fill:none;stroke:#000000;stroke-width:0.58783734px;stroke-linecap:butt;stroke-linejoin:miter;stroke-opacity:1"
       d="m 212.93611,382.31176 c 26.00429,2.83085 57.18483,-8.18832 71.44198,-10.5723 21.35493,14.98901 61.25284,12.69523 88.54002,6.2462 22.71743,8.31944 54.92022,17.14122 76.47992,1.95087 15.03695,-12.76937 34.47811,-4.7926 50.39336,1.80533 22.0936,5.22565 44.95929,-0.70903 62.74326,-7.56845 26.16197,6.18347 64.77716,11.52223 92.35067,1.26268 20.44856,-2.08413 41.01665,17.31468 54.88729,-1.12976"
       id="path4163"
       inkscape:connector-curvature="0" />
    <text
       xml:space="preserve"
       style="font-size:16.50925446px;font-style:normal;font-weight:normal;line-height:125%;letter-spacing:0px;word-spacing:0px;fill:#000000;fill-opacity:1;stroke:none;font-family:Sans"
       x="365.29114"
       y="476.05045"
       id="text4067-2"
       sodipodi:linespacing="125%"><tspan
         sodipodi:role="line"
         id="tspan4069-28"
         x="365.29114"
         y="476.05045">(markings indicate depth intervals)</tspan></text>
    <path
       sodipodi:type="arc"
       style="fill:#000000;fill-opacity:1;stroke:#030606;stroke-width:0.41800001;stroke-linecap:round;stroke-miterlimit:4;stroke-opacity:0.96825406;stroke-dasharray:none"
       id="path4192"
       sodipodi:cx="323.21429"
       sodipodi:cy="451.64789"
       sodipodi:rx="2.5"
       sodipodi:ry="2.5"
       d="m 325.71429,451.64789 a 2.5,2.5 0 1 1 -5,0 2.5,2.5 0 1 1 5,0 z"
       transform="matrix(1.0969155,0,0,0.39936749,-13.462122,252.11615)" />
    <path
       sodipodi:type="arc"
       style="fill:#000000;fill-opacity:1;stroke:#030606;stroke-width:0.41800001;stroke-linecap:round;stroke-miterlimit:4;stroke-opacity:0.96825406;stroke-dasharray:none"
       id="path4192-7"
       sodipodi:cx="323.21429"
       sodipodi:cy="451.64789"
       sodipodi:rx="2.5"
       sodipodi:ry="2.5"
       d="m 325.71429,451.64789 a 2.5,2.5 0 1 1 -5,0 2.5,2.5 0 1 1 5,0 z"
       transform="matrix(1.0969155,0,0,0.39936749,-11.718247,272.0914)" />
    <path
       sodipodi:type="arc"
       style="fill:#000000;fill-opacity:1;stroke:#030606;stroke-width:0.41800001;stroke-linecap:round;stroke-miterlimit:4;stroke-opacity:0.96825406;stroke-dasharray:none"
       id="path4192-3"
       sodipodi:cx="323.21429"
       sodipodi:cy="451.64789"
       sodipodi:rx="2.5"
       sodipodi:ry="2.5"
       d="m 325.71429,451.64789 a 2.5,2.5 0 1 1 -5,0 2.5,2.5 0 1 1 5,0 z"
       transform="matrix(1.0969155,0,0,0.39936749,-14.888919,292.06663)" />
    <path
       sodipodi:type="arc"
       style="fill:#000000;fill-opacity:1;stroke:#030606;stroke-width:0.41800001;stroke-linecap:round;stroke-miterlimit:4;stroke-opacity:0.96825406;stroke-dasharray:none"
       id="path4192-6"
       sodipodi:cx="323.21429"
       sodipodi:cy="451.64789"
       sodipodi:rx="2.5"
       sodipodi:ry="2.5"
       d="m 325.71429,451.64789 a 2.5,2.5 0 1 1 -5,0 2.5,2.5 0 1 1 5,0 z"
       transform="matrix(1.0969155,0,0,0.39936749,-19.010794,310.77361)" />
    <path
       sodipodi:type="arc"
       style="fill:#000000;fill-opacity:1;stroke:#030606;stroke-width:0.41800001;stroke-linecap:round;stroke-miterlimit:4;stroke-opacity:0.96825406;stroke-dasharray:none"
       id="path4192-1"
       sodipodi:cx="323.21429"
       sodipodi:cy="451.64789"
       sodipodi:rx="2.5"
       sodipodi:ry="2.5"
       d="m 325.71429,451.64789 a 2.5,2.5 0 1 1 -5,0 2.5,2.5 0 1 1 5,0 z"
       transform="matrix(1.0969155,0,0,0.39936749,-15.523053,232.14091)" />
    <g
       id="g4090"
       transform="matrix(1,0,0,0.76551097,32.289276,96.407344)">
      <path
         inkscape:connector-curvature="0"
         id="path3773-7"
         d="m 321.77707,234.23296 c 0,1.13909 0,2.27818 0,3.41725 0,0.16273 0,0.32546 0,0.48819 0,0.0814 -0.0115,0.16689 0,0.24408 0.0256,0.1726 0.083,0.31559 0.10859,0.48818 0.0229,0.15437 -0.0324,0.34263 0,0.48818 0.0229,0.10292 0.0962,0.13246 0.1086,0.24409 0.0214,0.19212 0,1.70291 0,1.95271 0,1.38318 0,2.76635 0,4.14952 0,1.46453 0,2.92907 0,4.39361 0,0.56954 0,1.13908 0,1.70862 0,0.16273 0,0.32546 0,0.48818 0,0.0814 0.0162,0.17132 0,0.24409 -0.0229,0.10292 -0.0857,0.14118 -0.1086,0.24409 -0.0312,0.14012 0.0231,1.01267 0,1.22044 -0.13109,1.1787 -0.0516,-0.0121 -0.21719,0.73227 -0.0162,0.0728 0.0114,0.16691 0,0.2441 -0.0256,0.17259 -0.089,0.31167 -0.10859,0.48817 -0.0263,0.2368 0.0343,0.5007 0,0.73227 -0.2622,1.76804 0.0313,-0.38483 -0.21719,0.73227 -0.0324,0.14555 0.0229,0.3338 0,0.48817 -0.12378,0.83465 -0.0901,0.18164 -0.32579,0.97637 -0.0201,0.0677 0.0114,0.16689 0,0.24408 -0.0256,0.1726 -0.0785,0.31926 -0.1086,0.48818 -0.0425,0.23889 -0.0574,0.50214 -0.10859,0.73227 -0.0652,0.2929 -0.26063,0.43936 -0.32579,0.73227 -0.0162,0.0728 0.0162,0.17131 0,0.24408 -0.0229,0.10292 -0.0857,0.14118 -0.1086,0.2441 -0.0162,0.0728 0.0162,0.17131 0,0.24408 -0.0229,0.10292 -0.0924,0.13493 -0.10859,0.24409 -0.0229,0.15438 0.0175,0.33031 0,0.48818 -0.0438,0.39407 -0.1068,0.48415 -0.2172,0.73227 -0.0362,0.0814 -0.0924,0.13493 -0.10859,0.24409 -0.0229,0.15438 0.0229,0.3338 0,0.48818 -0.0162,0.10915 -0.0962,0.13246 -0.1086,0.24409 -0.0263,0.2368 0.0263,0.49547 0,0.73227 -0.0124,0.11162 -0.0724,0.16272 -0.10859,0.24408 -0.0362,0.0814 -0.0724,0.16273 -0.1086,0.24409 -0.21719,0.48818 -0.43438,0.97636 -0.65158,1.46454 -0.0724,0.16272 -0.16039,0.2967 -0.21719,0.48818 -0.0449,0.15138 -0.0412,0.38726 -0.10859,0.48818 -0.0602,0.0903 -0.14851,-0.0515 -0.21719,0 -0.19101,0.1431 -0.0644,0.43455 -0.1086,0.73226 -0.0324,0.21833 -0.1714,0.28235 -0.21719,0.48819 -0.0162,0.0728 0.0162,0.17131 0,0.24408 -0.029,0.13036 -0.26862,0.60376 -0.32579,0.73227 -0.33215,0.74658 0.17728,-0.44993 -0.21719,0.73227 -0.0614,0.1841 -0.1604,0.2967 -0.21719,0.48818 -0.0201,0.0677 0.0162,0.17131 0,0.24408 -0.0229,0.10292 -0.0802,0.14835 -0.1086,0.2441 -0.0449,0.15137 -0.0637,0.33679 -0.10859,0.48817 -0.0284,0.0958 -0.0924,0.13493 -0.1086,0.2441 -0.0229,0.15437 0.0324,0.34262 0,0.48817 -0.0809,0.36387 -0.23267,0.62752 -0.32579,0.97636 -0.0186,0.0698 0.0114,0.1669 0,0.24409 -0.0512,0.34519 -0.166,0.63116 -0.21719,0.97636 -0.0472,0.31824 -0.0532,0.66488 -0.10859,0.97635 -0.038,0.21367 -0.17141,0.28234 -0.2172,0.48818 -0.0512,0.23013 -0.0574,0.50214 -0.10859,0.73227 -0.0229,0.10292 -0.0724,0.16273 -0.1086,0.24409 -0.0724,0.24409 -0.16872,0.45989 -0.21719,0.73226 -0.0269,0.15109 0.0229,0.33381 0,0.48818 -0.0162,0.10916 -0.0896,0.13726 -0.1086,0.24409 -0.0568,0.31916 -0.12242,1.35359 -0.21719,1.70863 -0.0527,0.19733 -0.1604,0.29669 -0.21719,0.48818 -0.0201,0.0677 0.006,0.16383 0,0.24408 -0.0303,0.40923 -0.0579,0.82155 -0.1086,1.22045 -0.0222,0.17493 -0.083,0.31558 -0.10859,0.48818 -0.0267,0.18022 0.007,1.13756 0,1.22045 -0.0159,0.17839 -0.083,0.31558 -0.1086,0.48817 -0.0114,0.0772 0,0.16273 0,0.24409 0,0.16273 0,0.32545 0,0.48818 0,0.40682 0,0.81364 0,1.22045 0,0.0814 0,0.16273 0,0.24409 0,0.0814 0.0201,0.17639 0,0.24409 -0.0568,0.19148 -0.1714,0.28234 -0.21719,0.48818 -0.0324,0.14554 0,0.32545 0,0.48817 0,0.48819 0,0.97636 0,1.46454 0,1.46454 0,2.92907 0,4.39361 0,2.11544 0,4.23088 0,6.34632 0,0.56954 0,1.13908 0,1.70862 0,0.24409 0,0.48818 0,0.73227 0,0.0814 -0.0114,0.1669 0,0.24409 0.30763,1.38293 -0.0405,-0.36387 0.10859,0.97636 0.0196,0.1765 0.0927,0.30977 0.1086,0.48817 0.0213,0.23935 -0.0213,0.49292 0,0.73227 0.0159,0.1784 0.0927,0.30978 0.1086,0.48818 0.0213,0.23935 -0.0403,0.50564 0,0.73227 0.038,0.21367 0.1714,0.28234 0.21719,0.48818 0.0324,0.14554 -0.0229,0.3338 0,0.48818 0.0162,0.10916 0.0724,0.16272 0.1086,0.24409 0.0362,0.24408 0.0808,0.48266 0.10859,0.73226 0.009,0.0789 0,0.16273 0,0.24409 0.0362,0.16273 0.083,0.31559 0.1086,0.48818 0.0114,0.0772 -0.0201,0.1764 0,0.24409 0.0568,0.19148 0.1604,0.2967 0.21719,0.48818 0.0201,0.0677 -0.0115,0.1669 0,0.24409 0.0256,0.1726 0.089,0.31167 0.10859,0.48817 0.0351,0.31574 -0.0458,0.66761 0,0.97637 0.0162,0.10915 0.0724,0.16272 0.1086,0.24408 0,0.16273 -0.0175,0.33032 0,0.48818 0.0743,0.66772 0.1527,0.39279 0.32579,0.97636 0.0201,0.0677 -0.0114,0.1669 0,0.24409 0.33669,1.51357 0.0138,-0.11978 0.1086,0.73227 0.22597,2.03168 -0.008,-0.29464 0.21719,1.22044 0.0115,0.0772 -0.0114,0.16691 0,0.24409 0.0657,0.44333 0.0929,0.453 0.21719,0.73227 0.0362,0.0814 0.0924,0.13493 0.10859,0.24409 0.0229,0.15437 -0.0175,0.33031 0,0.48818 0.0393,0.353 0.166,0.63116 0.2172,0.97635 0.0249,0.1679 -0.032,0.58825 0,0.73227 0.0584,0.26239 0.15882,0.46988 0.21719,0.73227 0.32794,1.47424 -0.0157,0.10334 0.10859,1.22044 0.0196,0.1765 0.083,0.31559 0.1086,0.48819 0.0114,0.0772 0,0.16272 0,0.24408 0,0.2441 -0.0263,0.49547 0,0.73227 0.0124,0.11163 0.0857,0.14117 0.10859,0.24409 0.0162,0.0728 -0.0134,0.16854 0,0.24409 0.0601,0.33785 0.15343,0.64191 0.2172,0.97636 0.12004,0.62957 0.10859,0.53185 0.10859,0.97635 0,0.0814 -0.009,0.16516 0,0.24409 0.0278,0.24961 0.0808,0.48266 0.1086,0.73227 0.009,0.0789 -0.0162,0.17131 0,0.24409 0.0229,0.10292 0.0857,0.14117 0.10859,0.24409 0.0162,0.0728 0,0.16272 0,0.24409 0.0724,0.16273 0.1604,0.2967 0.2172,0.48818 0.0242,0.0816 -0.0143,0.60346 0,0.73226 0.0278,0.24962 0.0808,0.48266 0.10859,0.73227 0.0175,0.15787 -0.0229,0.33381 0,0.48818 0.0256,0.1726 0.083,0.31559 0.1086,0.48818 0.0281,0.18944 -0.0154,1.29199 0,1.46454 0.0159,0.1784 0.0927,0.30978 0.10859,0.48818 0.0288,0.32343 0,0.85388 0,1.22044 0,1.13909 0,2.27816 0,3.41725 0,0.73227 0,1.46454 0,2.19681 0,0.20665 0.0195,0.84513 0,0.97635 -0.0162,0.10916 -0.0857,0.14118 -0.10859,0.24409 -0.0162,0.0728 0,0.16273 0,0.24409 0,0.0814 0,0.16273 0,0.24409 0,0.17412 0.02,1.04025 0,1.22044 -0.2743,2.46619 0.0392,-0.17627 -0.21719,0.97636 -0.0341,0.15342 0.0341,0.82294 0,0.97636 -0.0229,0.10292 -0.0857,0.14117 -0.1086,0.24409 -0.0341,0.15341 0.0341,0.82294 0,0.97636 -0.0229,0.10291 -0.0857,0.14117 -0.1086,0.24408 -0.0162,0.0728 0,0.16273 0,0.24409 0,0.16273 0.0229,0.33381 0,0.48818 -0.0162,0.10916 -0.0802,0.14835 -0.10859,0.24409 -0.0449,0.15138 -0.0637,0.3368 -0.1086,0.48818 -0.0284,0.0957 -0.0802,0.14835 -0.10859,0.24409 -0.0449,0.15138 -0.0637,0.3368 -0.1086,0.48818 -0.16567,0.55855 -0.086,-0.15263 -0.21719,0.73227 -0.0114,0.0772 0.0201,0.17638 0,0.24409 -0.10653,0.35916 -0.32785,0.61718 -0.43438,0.97635 -0.0898,0.30276 -0.1274,0.6736 -0.2172,0.97636 -0.0284,0.0957 -0.0724,0.16273 -0.10859,0.24409 -0.1086,0.24409 -0.21719,0.48818 -0.32579,0.73227 -0.137,0.30794 -0.28309,0.72131 -0.43438,0.97635 -0.0648,0.10916 -0.14985,0.14318 -0.2172,0.2441 -0.0426,0.0638 -0.066,0.18026 -0.10859,0.24408 -0.0673,0.10092 -0.15244,0.13493 -0.21719,0.24409 -0.0465,0.0784 -0.36854,0.90237 -0.43439,0.97636 -0.0324,0.0364 -0.0735,-0.0198 -0.10859,0 -0.11105,0.0624 -0.2172,0.16273 -0.32579,0.24409"
         style="fill:none;stroke:#000000;stroke-width:0.45586801px;stroke-linecap:butt;stroke-linejoin:miter;stroke-opacity:1" />
      <path
         inkscape:connector-curvature="0"
         id="path3773-6-5"
         d="m 313.03511,234.23297 c 0,1.13909 0,2.27818 0,3.41725 0,0.16273 0,0.32546 0,0.48819 0,0.0814 -0.0115,0.16689 0,0.24408 0.0256,0.1726 0.083,0.31559 0.10859,0.48818 0.0229,0.15437 -0.0324,0.34263 0,0.48818 0.0229,0.10292 0.0962,0.13246 0.1086,0.24409 0.0214,0.19212 0,1.70291 0,1.95271 0,1.38318 0,2.76635 0,4.14952 0,1.46453 0,2.92907 0,4.39361 0,0.56954 0,1.13908 0,1.70862 0,0.16273 0,0.32546 0,0.48818 0,0.0814 0.0162,0.17132 0,0.24409 -0.0229,0.10292 -0.0857,0.14118 -0.1086,0.24409 -0.0312,0.14012 0.0231,1.01266 0,1.22043 -0.13109,1.1787 -0.0516,-0.0121 -0.21719,0.73227 -0.0162,0.0728 0.0114,0.16691 0,0.2441 -0.0256,0.17259 -0.089,0.31167 -0.10859,0.48817 -0.0263,0.2368 0.0343,0.5007 0,0.73227 -0.2622,1.76804 0.0313,-0.38483 -0.21719,0.73227 -0.0324,0.14555 0.0229,0.3338 0,0.48817 -0.12378,0.83465 -0.0901,0.18164 -0.32579,0.97637 -0.0201,0.0677 0.0114,0.16689 0,0.24408 -0.0256,0.1726 -0.0785,0.31926 -0.1086,0.48818 -0.0425,0.23889 -0.0574,0.50214 -0.10859,0.73227 -0.0652,0.2929 -0.26063,0.43936 -0.32579,0.73227 -0.0162,0.0728 0.0162,0.17131 0,0.24408 -0.0229,0.10292 -0.0857,0.14118 -0.1086,0.2441 -0.0162,0.0728 0.0162,0.17131 0,0.24408 -0.0229,0.10292 -0.0924,0.13493 -0.10859,0.24409 -0.0229,0.15438 0.0175,0.33031 0,0.48818 -0.0438,0.39407 -0.1068,0.48415 -0.2172,0.73227 -0.0362,0.0814 -0.0924,0.13493 -0.10859,0.24409 -0.0229,0.15438 0.0229,0.3338 0,0.48818 -0.0162,0.10915 -0.0962,0.13246 -0.1086,0.24409 -0.0263,0.2368 0.0263,0.49547 0,0.73227 -0.0124,0.11162 -0.0724,0.16272 -0.10859,0.24408 -0.0362,0.0814 -0.0724,0.16273 -0.1086,0.24409 -0.21719,0.48818 -0.43438,0.97636 -0.65158,1.46454 -0.0724,0.16272 -0.16039,0.2967 -0.21719,0.48818 -0.0449,0.15138 -0.0412,0.38726 -0.10859,0.48818 -0.0602,0.0903 -0.14851,-0.0515 -0.21719,0 -0.19101,0.1431 -0.0644,0.43455 -0.1086,0.73226 -0.0324,0.21833 -0.1714,0.28235 -0.21719,0.48819 -0.0162,0.0728 0.0162,0.17131 0,0.24408 -0.029,0.13036 -0.26862,0.60376 -0.32579,0.73227 -0.33215,0.74658 0.17728,-0.44993 -0.21719,0.73227 -0.0614,0.1841 -0.1604,0.2967 -0.21719,0.48818 -0.0201,0.0677 0.0162,0.17131 0,0.24408 -0.0229,0.10292 -0.0802,0.14835 -0.1086,0.2441 -0.0449,0.15137 -0.0637,0.33679 -0.10859,0.48817 -0.0284,0.0958 -0.0924,0.13493 -0.1086,0.2441 -0.0229,0.15437 0.0324,0.34262 0,0.48817 -0.0809,0.36387 -0.23267,0.62752 -0.32579,0.97636 -0.0186,0.0698 0.0114,0.1669 0,0.24409 -0.0512,0.34519 -0.166,0.63116 -0.21719,0.97636 -0.0472,0.31824 -0.0532,0.66488 -0.10859,0.97635 -0.038,0.21367 -0.17141,0.28234 -0.2172,0.48818 -0.0512,0.23013 -0.0574,0.50214 -0.10859,0.73227 -0.0229,0.10292 -0.0724,0.16273 -0.1086,0.24409 -0.0724,0.24409 -0.16872,0.45989 -0.21719,0.73226 -0.0269,0.15109 0.0229,0.33381 0,0.48818 -0.0162,0.10916 -0.0896,0.13726 -0.1086,0.24409 -0.0568,0.31916 -0.12242,1.35359 -0.21719,1.70863 -0.0527,0.19733 -0.1604,0.29669 -0.21719,0.48818 -0.0201,0.0677 0.006,0.16383 0,0.24408 -0.0303,0.40923 -0.0579,0.82155 -0.1086,1.22045 -0.0222,0.17493 -0.083,0.31558 -0.10859,0.48818 -0.0267,0.18022 0.007,1.13756 0,1.22045 -0.0159,0.17839 -0.083,0.31558 -0.1086,0.48817 -0.0114,0.0772 0,0.16273 0,0.24409 0,0.16273 0,0.32545 0,0.48818 0,0.40682 0,0.81364 0,1.22045 0,0.0814 0,0.16273 0,0.24409 0,0.0814 0.0201,0.17639 0,0.24409 -0.0568,0.19148 -0.1714,0.28234 -0.21719,0.48818 -0.0324,0.14554 0,0.32545 0,0.48817 0,0.48819 0,0.97636 0,1.46454 0,1.46454 0,2.92907 0,4.39361 0,2.11544 0,4.23088 0,6.34632 0,0.56954 0,1.13908 0,1.70862 0,0.24409 0,0.48818 0,0.73227 0,0.0814 -0.0114,0.1669 0,0.24409 0.30763,1.38293 -0.0405,-0.36387 0.10859,0.97636 0.0196,0.1765 0.0927,0.30977 0.1086,0.48817 0.0213,0.23935 -0.0213,0.49292 0,0.73227 0.0159,0.1784 0.0927,0.30978 0.1086,0.48818 0.0213,0.23935 -0.0403,0.50564 0,0.73227 0.038,0.21367 0.1714,0.28234 0.21719,0.48818 0.0324,0.14554 -0.0229,0.3338 0,0.48818 0.0162,0.10916 0.0724,0.16272 0.1086,0.24409 0.0362,0.24408 0.0808,0.48266 0.10859,0.73226 0.009,0.0789 0,0.16273 0,0.24409 0.0362,0.16273 0.083,0.31559 0.1086,0.48818 0.0114,0.0772 -0.0201,0.1764 0,0.24409 0.0568,0.19148 0.1604,0.2967 0.21719,0.48818 0.0201,0.0677 -0.0115,0.1669 0,0.24409 0.0256,0.1726 0.089,0.31167 0.10859,0.48817 0.0351,0.31574 -0.0458,0.66761 0,0.97637 0.0162,0.10915 0.0724,0.16272 0.1086,0.24408 0,0.16273 -0.0175,0.33032 0,0.48818 0.0743,0.66772 0.1527,0.39279 0.32579,0.97636 0.0201,0.0677 -0.0114,0.1669 0,0.24409 0.33669,1.51357 0.0138,-0.11978 0.1086,0.73227 0.22597,2.03168 -0.008,-0.29464 0.21719,1.22044 0.0115,0.0772 -0.0114,0.16691 0,0.24409 0.0657,0.44333 0.0929,0.453 0.21719,0.73227 0.0362,0.0814 0.0924,0.13493 0.10859,0.24409 0.0229,0.15437 -0.0175,0.33031 0,0.48818 0.0393,0.353 0.166,0.63116 0.2172,0.97635 0.0249,0.1679 -0.032,0.58825 0,0.73227 0.0584,0.26239 0.15882,0.46988 0.21719,0.73227 0.32794,1.47424 -0.0157,0.10334 0.10859,1.22044 0.0196,0.1765 0.083,0.31559 0.1086,0.48819 0.0114,0.0772 0,0.16272 0,0.24408 0,0.2441 -0.0263,0.49547 0,0.73227 0.0124,0.11163 0.0857,0.14117 0.10859,0.24409 0.0162,0.0728 -0.0134,0.16854 0,0.24409 0.0601,0.33785 0.15343,0.64191 0.2172,0.97636 0.12004,0.62957 0.10859,0.53185 0.10859,0.97635 0,0.0814 -0.009,0.16516 0,0.24409 0.0278,0.24961 0.0808,0.48266 0.1086,0.73227 0.009,0.0789 -0.0162,0.17131 0,0.24409 0.0229,0.10292 0.0857,0.14117 0.10859,0.24409 0.0162,0.0728 0,0.16272 0,0.24409 0.0724,0.16273 0.1604,0.2967 0.2172,0.48818 0.0242,0.0816 -0.0143,0.60346 0,0.73226 0.0278,0.24962 0.0808,0.48266 0.10859,0.73227 0.0175,0.15787 -0.0229,0.33381 0,0.48818 0.0256,0.1726 0.083,0.31559 0.1086,0.48818 0.0281,0.18944 -0.0154,1.29199 0,1.46454 0.0159,0.1784 0.0927,0.30978 0.10859,0.48818 0.0288,0.32343 0,0.85388 0,1.22044 0,1.13909 0,2.27816 0,3.41725 0,0.73227 0,1.46454 0,2.19681 0,0.20665 0.0195,0.84513 0,0.97635 -0.0162,0.10916 -0.0857,0.14118 -0.10859,0.24409 -0.0162,0.0728 0,0.16273 0,0.24409 0,0.0814 0,0.16273 0,0.24409 0,0.17412 0.02,1.04025 0,1.22044 -0.2743,2.46619 0.0392,-0.17627 -0.21719,0.97636 -0.0341,0.15342 0.0341,0.82294 0,0.97636 -0.0229,0.10292 -0.0857,0.14117 -0.1086,0.24409 -0.0341,0.15341 0.0341,0.82294 0,0.97636 -0.0229,0.10291 -0.0857,0.14117 -0.1086,0.24408 -0.0162,0.0728 0,0.16273 0,0.24409 0,0.16273 0.0229,0.33381 0,0.48818 -0.0162,0.10916 -0.0802,0.14835 -0.10859,0.24409 -0.0449,0.15138 -0.0637,0.3368 -0.1086,0.48818 -0.0284,0.0957 -0.0802,0.14835 -0.10859,0.24409 -0.0449,0.15138 -0.0637,0.3368 -0.1086,0.48818 -0.16567,0.55855 -0.086,-0.15263 -0.21719,0.73227 -0.0114,0.0772 0.0201,0.17638 0,0.24409 -0.10653,0.35916 -0.32785,0.61718 -0.43438,0.97635 -0.0898,0.30276 -0.1274,0.6736 -0.2172,0.97636 -0.0284,0.0957 -0.0724,0.16273 -0.10859,0.24409 -0.1086,0.24409 -0.21719,0.48818 -0.32579,0.73227 -0.137,0.30794 -0.28309,0.72131 -0.43438,0.97635 -0.0648,0.10916 -0.14985,0.14318 -0.2172,0.2441 -0.0426,0.0638 -0.066,0.18026 -0.10859,0.24408 -0.0673,0.10092 -0.15244,0.13493 -0.21719,0.24409 -0.0465,0.0784 -0.36854,0.90237 -0.43439,0.97636 -0.0324,0.0364 -0.0735,-0.0198 -0.10859,0 -0.11105,0.0624 -0.2172,0.16273 -0.32579,0.24409"
         style="fill:none;stroke:#000000;stroke-width:0.45586801px;stroke-linecap:butt;stroke-linejoin:miter;stroke-opacity:1" />
    </g>
    <rect
       style="fill:none;stroke:#030606;stroke-width:0.41800001;stroke-linecap:round;stroke-miterlimit:4;stroke-opacity:0.96825406;stroke-dasharray:none"
       id="rect2985-35"
       width="88.893425"
       height="35.355339"
       x="182.51389"
       y="-366.93033"
       transform="matrix(0,1,-1,0,0,0)" />
    <rect
       style="fill:none;stroke:#030606;stroke-width:0.17221829;stroke-linecap:round;stroke-miterlimit:4;stroke-opacity:0.96825406;stroke-dasharray:none"
       id="rect2985-3-6"
       width="27.626684"
       height="19.310871"
       x="247.47815"
       y="-359.42044"
       transform="matrix(0,1,-1,0,0,0)" />
    <g
       id="g4367"
       transform="matrix(-1,0,0,-1,701.43337,445.66537)">
      <path
         transform="translate(31.86376,33.91272)"
         d="m 313.65238,195.12148 c 0,2.16183 -1.75251,3.91434 -3.91434,3.91434 -2.16183,0 -3.91434,-1.75251 -3.91434,-3.91434 0,-2.16184 1.75251,-3.91435 3.91434,-3.91435 2.16183,0 3.91434,1.75251 3.91434,3.91435 z"
         sodipodi:ry="3.9143412"
         sodipodi:rx="3.9143412"
         sodipodi:cy="195.12148"
         sodipodi:cx="309.73804"
         id="path3853"
         style="fill:#ffffff;fill-opacity:1;stroke:#030606;stroke-width:0.41800001;stroke-linecap:round;stroke-miterlimit:4;stroke-opacity:0.96825406;stroke-dasharray:none"
         sodipodi:type="arc" />
      <path
         d="m 313.65238,195.12148 c 0,2.16183 -1.75251,3.91434 -3.91434,3.91434 -2.16183,0 -3.91434,-1.75251 -3.91434,-3.91434 0,-2.16184 1.75251,-3.91435 3.91434,-3.91435 2.16183,0 3.91434,1.75251 3.91434,3.91435 z"
         sodipodi:ry="3.9143412"
         sodipodi:rx="3.9143412"
         sodipodi:cy="195.12148"
         sodipodi:cx="309.73804"
         id="path3853-9"
         style="fill:#ffffff;fill-opacity:1;stroke:#030606;stroke-width:0.41800001;stroke-linecap:round;stroke-miterlimit:4;stroke-opacity:0.96825406;stroke-dasharray:none"
         sodipodi:type="arc"
         transform="translate(42.28095,33.84959)" />
      <path
         d="m 313.65238,195.12148 c 0,2.16183 -1.75251,3.91434 -3.91434,3.91434 -2.16183,0 -3.91434,-1.75251 -3.91434,-3.91434 0,-2.16184 1.75251,-3.91435 3.91434,-3.91435 2.16183,0 3.91434,1.75251 3.91434,3.91435 z"
         sodipodi:ry="3.9143412"
         sodipodi:rx="3.9143412"
         sodipodi:cy="195.12148"
         sodipodi:cx="309.73804"
         id="path3853-9-1"
         style="fill:#ffffff;fill-opacity:1;stroke:#030606;stroke-width:0.41800001;stroke-linecap:round;stroke-miterlimit:4;stroke-opacity:0.96825406;stroke-dasharray:none"
         sodipodi:type="arc"
         transform="translate(52.95068,33.78646)" />
      <rect
         transform="scale(-1,-1)"
         y="-215.80801"
         x="-360.23798"
         height="6.9642859"
         width="7.0535712"
         id="rect3930"
         style="fill:#ffffff;fill-opacity:1;stroke:#030606;stroke-width:0.41800001;stroke-linecap:round;stroke-miterlimit:4;stroke-opacity:0.96825406;stroke-dasharray:none" />
      <rect
         transform="scale(-1,-1)"
         y="-215.89728"
         x="-349.56384"
         height="6.9642859"
         width="7.0535712"
         id="rect3930-7"
         style="fill:#ffffff;fill-opacity:1;stroke:#030606;stroke-width:0.41800001;stroke-linecap:round;stroke-miterlimit:4;stroke-opacity:0.96825406;stroke-dasharray:none" />
      <text
         transform="scale(-1,-1)"
         sodipodi:linespacing="125%"
         id="text3950"
         y="-219.48328"
         x="-364.41446"
         style="font-size:5.09349108px;font-style:normal;font-weight:normal;line-height:125%;letter-spacing:0px;word-spacing:0px;fill:#000000;fill-opacity:1;stroke:none;font-family:Sans"
         xml:space="preserve"><tspan
           y="-219.48328"
           x="-364.41446"
           id="tspan3952"
           sodipodi:role="line">1</tspan></text>
      <text
         transform="scale(-1,-1)"
         sodipodi:linespacing="125%"
         id="text3950-0"
         y="-219.26443"
         x="-353.12076"
         style="font-size:5.09349108px;font-style:normal;font-weight:normal;line-height:125%;letter-spacing:0px;word-spacing:0px;fill:#000000;fill-opacity:1;stroke:none;font-family:Sans"
         xml:space="preserve"><tspan
           y="-219.26443"
           x="-353.12076"
           id="tspan3952-9"
           sodipodi:role="line">2</tspan></text>
      <text
         transform="scale(-1,-1)"
         sodipodi:linespacing="125%"
         id="text3950-0-3"
         y="-219.0119"
         x="-342.95612"
         style="font-size:5.09349108px;font-style:normal;font-weight:normal;line-height:125%;letter-spacing:0px;word-spacing:0px;fill:#000000;fill-opacity:1;stroke:none;font-family:Sans"
         xml:space="preserve"><tspan
           y="-219.0119"
           x="-342.95612"
           id="tspan3952-9-6"
           sodipodi:role="line">3</tspan></text>
      <text
         transform="scale(-1,-1)"
         sodipodi:linespacing="125%"
         id="text3950-06"
         y="-203.41766"
         x="-358.36093"
         style="font-size:5.09349108px;font-style:normal;font-weight:normal;line-height:125%;letter-spacing:0px;word-spacing:0px;fill:#000000;fill-opacity:1;stroke:none;font-family:Sans"
         xml:space="preserve"><tspan
           y="-203.41766"
           x="-358.36093"
           id="tspan3952-2"
           sodipodi:role="line">A</tspan></text>
      <text
         transform="scale(-1,-1)"
         sodipodi:linespacing="125%"
         id="text3950-06-8"
         y="-203.22827"
         x="-347.3251"
         style="font-size:5.09349108px;font-style:normal;font-weight:normal;line-height:125%;letter-spacing:0px;word-spacing:0px;fill:#000000;fill-opacity:1;stroke:none;font-family:Sans"
         xml:space="preserve"><tspan
           y="-203.22827"
           x="-347.3251"
           id="tspan3952-2-7"
           sodipodi:role="line">B</tspan></text>
    </g>
    <text
       xml:space="preserve"
       style="font-size:25.69848824px;font-style:normal;font-weight:normal;line-height:125%;letter-spacing:0px;word-spacing:0px;fill:#000000;fill-opacity:1;stroke:none;font-family:Sans"
       x="378.55304"
       y="218.23428"
       id="text4063-9"
       sodipodi:linespacing="125%"><tspan
         sodipodi:role="line"
         id="tspan4065-2"
         x="378.55304"
         y="218.23428">remote</tspan></text>
    <text
       xml:space="preserve"
       style="font-size:18.59593391px;font-style:normal;font-weight:normal;line-height:125%;letter-spacing:0px;word-spacing:0px;fill:#000000;fill-opacity:1;stroke:none;font-family:Sans"
       x="379.41049"
       y="243.52313"
       id="text4067-0"
       sodipodi:linespacing="125%"><tspan
         sodipodi:role="line"
         id="tspan4069-2"
         x="379.41049"
         y="243.52313">LEDs, buttons, power</tspan></text>
    <path
       sodipodi:type="arc"
       style="fill:#000000;fill-opacity:1;stroke:#030606;stroke-width:0.41800001;stroke-linecap:round;stroke-miterlimit:4;stroke-opacity:0.96825406;stroke-dasharray:none"
       id="path4192-2"
       sodipodi:cx="323.21429"
       sodipodi:cy="451.64789"
       sodipodi:rx="2.5"
       sodipodi:ry="2.5"
       d="m 325.71429,451.64789 a 2.5,2.5 0 1 1 -5,0 2.5,2.5 0 1 1 5,0 z"
       transform="matrix(-1.2355596,0,0,-0.44984536,746.63981,557.40622)" />
    <path
       sodipodi:type="arc"
       style="fill:#000000;fill-opacity:1;stroke:#030606;stroke-width:0.41800001;stroke-linecap:round;stroke-miterlimit:4;stroke-opacity:0.96825406;stroke-dasharray:none"
       id="path4192-2-3"
       sodipodi:cx="323.21429"
       sodipodi:cy="451.64789"
       sodipodi:rx="2.5"
       sodipodi:ry="2.5"
       d="m 325.71429,451.64789 a 2.5,2.5 0 1 1 -5,0 2.5,2.5 0 1 1 5,0 z"
       transform="matrix(-1.2355596,0,0,-0.44984536,743.06838,537.40622)" />
    <path
       sodipodi:type="arc"
       style="fill:#000000;fill-opacity:1;stroke:#030606;stroke-width:0.41800001;stroke-linecap:round;stroke-miterlimit:4;stroke-opacity:0.96825406;stroke-dasharray:none"
       id="path4192-2-1"
       sodipodi:cx="323.21429"
       sodipodi:cy="451.64789"
       sodipodi:rx="2.5"
       sodipodi:ry="2.5"
       d="m 325.71429,451.64789 a 2.5,2.5 0 1 1 -5,0 2.5,2.5 0 1 1 5,0 z"
       transform="matrix(-1.2355596,0,0,-0.44984536,742.71124,515.62051)" />
    <text
       xml:space="preserve"
       style="font-size:22.81481934px;font-style:normal;font-weight:normal;line-height:125%;letter-spacing:0px;word-spacing:0px;fill:#000000;fill-opacity:1;stroke:none;font-family:Sans"
       x="390.15994"
       y="661.51343"
       id="text4063-94"
       sodipodi:linespacing="125%"><tspan
         sodipodi:role="line"
         id="tspan4065-7"
         x="390.15994"
         y="661.51343">bottle / enclosure</tspan></text>
  </g>
</svg>
